<svg width="440" height="101" viewBox="0 0 440 101" fill="none" xmlns="http://www.w3.org/2000/svg">
<path d="M53.1604 31.4126C62.3271 24.9126 83.0604 16.6126 92.6604 35.4126C91.827 25.246 82.7604 10.2126 53.1604 31.4126Z" fill="#4CC446"/>
<path d="M37.1603 8.91269C-3.83971 -9.08739 -0.339727 37.4128 17.1603 72.4127C-8.33951 40.9127 -8.33972 -23.5872 37.1603 8.91269Z" fill="#4CC446"/>
<path d="M33.1602 74.4127C19.1602 78.8127 16.9936 93.9127 17.6602 100.913C31.1602 92.4126 34.6603 96.4128 54.6603 93.4128C70.6603 91.0128 85.3269 72.7461 90.6603 63.9127C91.9936 61.7461 94.0603 57.9127 91.6603 59.9127C88.6603 62.4127 64.6603 77.4127 55.6603 81.9127C46.6603 86.4127 37.6603 82.4127 47.1603 78.9127C54.7603 76.1127 63.6603 65.9128 63.1603 65.4128C62.6603 64.9128 50.6602 68.9127 33.1602 74.4127Z" fill="#066A96"/>
<path d="M19.6604 31.4127C13.6604 38.6127 20.4937 63.4127 24.6604 74.9127C19.6604 69.4128 9.4604 54.3128 8.6604 37.9128C7.6604 17.4128 14.6604 10.4128 29.6604 9.91279C41.6604 9.51279 48.9937 26.7462 51.1604 35.4128C56.9937 30.4128 74.9312 20.6484 86.1604 30.4128C97.6604 40.4128 86.9937 56.4128 81.1604 63.4128C87.6604 49.9128 84.4647 34.5348 70.1604 33.9128C58.6604 33.4128 50.827 38.5794 48.1604 42.4127C36.1604 24.4127 27.1604 22.4127 19.6604 31.4127Z" fill="#669933"/>
<path fill-rule="evenodd" clip-rule="evenodd" d="M50.6604 45.9128C49.0035 45.9128 47.6604 47.2561 47.6604 48.9128V53.4128H43.1604C41.5035 53.4128 40.1604 54.7561 40.1604 56.4128C40.1604 58.0696 41.5035 59.4128 43.1604 59.4128H47.6604V63.9128C47.6604 65.5696 49.0035 66.9128 50.6604 66.9128C52.3172 66.9128 53.6604 65.5696 53.6604 63.9128V59.4128H58.1604C59.8172 59.4128 61.1604 58.0696 61.1604 56.4128C61.1604 54.7561 59.8172 53.4128 58.1604 53.4128H53.6604V48.9128C53.6604 47.2561 52.3172 45.9128 50.6604 45.9128Z" fill="#E76B14"/>
<path d="M136.673 69H128.763V52.5469H113.338V69H105.428V30.6094H113.338V46.166H128.763V30.6094H136.673V69ZM153.537 69.5273C149.354 69.5273 145.944 68.2441 143.307 65.6777C140.688 63.1113 139.378 59.6924 139.378 55.4209V54.6826C139.378 51.8174 139.932 49.2598 141.039 47.0098C142.147 44.7422 143.711 43.002 145.733 41.7891C147.772 40.5586 150.092 39.9434 152.694 39.9434C156.596 39.9434 159.663 41.1738 161.896 43.6348C164.146 46.0957 165.271 49.585 165.271 54.1025V57.2139H147.104C147.35 59.0771 148.088 60.5713 149.319 61.6963C150.567 62.8213 152.14 63.3838 154.038 63.3838C156.974 63.3838 159.268 62.3203 160.92 60.1934L164.664 64.3857C163.522 66.0029 161.975 67.2686 160.024 68.1826C158.072 69.0791 155.91 69.5273 153.537 69.5273ZM152.667 46.1133C151.155 46.1133 149.925 46.623 148.976 47.6426C148.044 48.6621 147.446 50.1211 147.183 52.0195H157.782V51.4131C157.747 49.7256 157.29 48.4248 156.411 47.5107C155.532 46.5791 154.284 46.1133 152.667 46.1133ZM183.454 69C183.102 68.3145 182.847 67.4619 182.689 66.4424C180.843 68.499 178.444 69.5273 175.491 69.5273C172.696 69.5273 170.375 68.7188 168.53 67.1016C166.702 65.4844 165.787 63.4453 165.787 60.9844C165.787 57.9609 166.904 55.6406 169.136 54.0234C171.386 52.4062 174.629 51.5889 178.866 51.5713H182.372V49.9365C182.372 48.6182 182.03 47.5635 181.344 46.7725C180.676 45.9814 179.613 45.5859 178.154 45.5859C176.871 45.5859 175.86 45.8936 175.121 46.5088C174.401 47.124 174.04 47.9678 174.04 49.04H166.42C166.42 47.3877 166.93 45.8584 167.95 44.4521C168.969 43.0459 170.411 41.9473 172.274 41.1562C174.137 40.3477 176.229 39.9434 178.549 39.9434C182.065 39.9434 184.851 40.8311 186.908 42.6064C188.982 44.3643 190.019 46.8428 190.019 50.042V62.4082C190.037 65.1152 190.414 67.1631 191.153 68.5518V69H183.454ZM177.152 63.7002C178.277 63.7002 179.314 63.4541 180.263 62.9619C181.212 62.4521 181.915 61.7754 182.372 60.9316V56.0273H179.525C175.71 56.0273 173.68 57.3457 173.434 59.9824L173.408 60.4307C173.408 61.3799 173.742 62.1621 174.41 62.7773C175.078 63.3926 175.992 63.7002 177.152 63.7002ZM201.214 69H193.568V28.5H201.214V69ZM213.939 33.457V40.4707H218.817V46.0605H213.939V60.2988C213.939 61.3535 214.141 62.1094 214.546 62.5664C214.95 63.0234 215.723 63.252 216.866 63.252C217.71 63.252 218.457 63.1904 219.107 63.0674V68.8418C217.613 69.2988 216.075 69.5273 214.493 69.5273C209.149 69.5273 206.425 66.8291 206.319 61.4326V46.0605H202.153V40.4707H206.319V33.457H213.939ZM227.798 43.582C229.819 41.1562 232.359 39.9434 235.418 39.9434C241.605 39.9434 244.743 43.5381 244.831 50.7275V69H237.211V50.9385C237.211 49.3037 236.859 48.0996 236.156 47.3262C235.453 46.5352 234.284 46.1396 232.649 46.1396C230.417 46.1396 228.8 47.001 227.798 48.7236V69H220.178V28.5H227.798V43.582Z" fill="#066A96"/>
<path d="M262.381 60.6416L272.137 30.6094H279.467L265.651 69H259.191L245.427 30.6094H252.731L262.381 60.6416ZM287.314 69H280.907V40.4707H287.314V69ZM280.511 33.0615C280.511 32.0771 280.819 31.2598 281.434 30.6094C282.067 29.959 282.963 29.6338 284.123 29.6338C285.284 29.6338 286.18 29.959 286.813 30.6094C287.446 31.2598 287.762 32.0771 287.762 33.0615C287.762 34.0283 287.446 34.8369 286.813 35.4873C286.18 36.1201 285.284 36.4365 284.123 36.4365C282.963 36.4365 282.067 36.1201 281.434 35.4873C280.819 34.8369 280.511 34.0283 280.511 33.0615ZM290.415 54.5244C290.415 50.1299 291.434 46.6055 293.473 43.9512C295.512 41.2793 298.246 39.9434 301.673 39.9434C304.697 39.9434 307.14 40.998 309.004 43.1074V28.5H315.411V69H309.61L309.294 66.0469C307.378 68.3672 304.82 69.5273 301.621 69.5273C298.281 69.5273 295.574 68.1826 293.5 65.4932C291.443 62.8037 290.415 59.1475 290.415 54.5244ZM296.822 55.0781C296.822 57.9785 297.376 60.2461 298.483 61.8809C299.608 63.498 301.199 64.3066 303.255 64.3066C305.875 64.3066 307.791 63.1377 309.004 60.7998V48.6182C307.826 46.333 305.927 45.1904 303.308 45.1904C301.234 45.1904 299.634 46.0166 298.509 47.6689C297.384 49.3037 296.822 51.7734 296.822 55.0781ZM331.959 69.5273C327.898 69.5273 324.602 68.2529 322.071 65.7041C319.557 63.1377 318.301 59.7275 318.301 55.4736V54.6826C318.301 51.835 318.846 49.2949 319.935 47.0625C321.043 44.8125 322.59 43.0635 324.576 41.8154C326.562 40.5674 328.777 39.9434 331.221 39.9434C335.105 39.9434 338.102 41.1826 340.212 43.6611C342.339 46.1396 343.402 49.6465 343.402 54.1816V56.7656H324.761C324.954 59.1211 325.736 60.9844 327.107 62.3555C328.496 63.7266 330.236 64.4121 332.328 64.4121C335.263 64.4121 337.654 63.2256 339.5 60.8525L342.954 64.1484C341.811 65.8535 340.282 67.1807 338.366 68.1299C336.468 69.0615 334.332 69.5273 331.959 69.5273ZM331.194 45.085C329.436 45.085 328.012 45.7002 326.923 46.9307C325.85 48.1611 325.165 49.875 324.866 52.0723H337.074V51.5977C336.933 49.4531 336.362 47.8359 335.36 46.7461C334.358 45.6387 332.97 45.085 331.194 45.085ZM344.499 54.4717C344.499 51.6768 345.053 49.1631 346.16 46.9307C347.268 44.6807 348.823 42.958 350.827 41.7627C352.831 40.5498 355.134 39.9434 357.735 39.9434C361.585 39.9434 364.705 41.1826 367.096 43.6611C369.504 46.1396 370.805 49.4268 370.998 53.5225L371.024 55.0254C371.024 57.8379 370.479 60.3516 369.39 62.5664C368.317 64.7812 366.771 66.4951 364.749 67.708C362.745 68.9209 360.425 69.5273 357.788 69.5273C353.763 69.5273 350.537 68.1914 348.111 65.5195C345.703 62.8301 344.499 59.2529 344.499 54.7881V54.4717ZM350.906 55.0254C350.906 57.9609 351.513 60.2637 352.726 61.9336C353.938 63.5859 355.626 64.4121 357.788 64.4121C359.95 64.4121 361.629 63.5684 362.824 61.8809C364.037 60.1934 364.644 57.7236 364.644 54.4717C364.644 51.5889 364.02 49.3037 362.771 47.6162C361.541 45.9287 359.862 45.085 357.735 45.085C355.644 45.085 353.982 45.9199 352.752 47.5898C351.521 49.2422 350.906 51.7207 350.906 55.0254ZM389.735 61.248C389.735 60.1055 389.26 59.2354 388.311 58.6377C387.379 58.04 385.823 57.5127 383.644 57.0557C381.464 56.5986 379.645 56.0186 378.186 55.3154C374.987 53.7686 373.387 51.5273 373.387 48.5918C373.387 46.1309 374.424 44.0742 376.498 42.4219C378.572 40.7695 381.209 39.9434 384.408 39.9434C387.819 39.9434 390.57 40.7871 392.661 42.4746C394.771 44.1621 395.825 46.3506 395.825 49.04H389.418C389.418 47.8096 388.961 46.79 388.047 45.9814C387.133 45.1553 385.92 44.7422 384.408 44.7422C383.002 44.7422 381.851 45.0674 380.954 45.7178C380.075 46.3682 379.636 47.2383 379.636 48.3281C379.636 49.3125 380.049 50.0771 380.875 50.6221C381.701 51.167 383.371 51.7207 385.885 52.2832C388.399 52.8281 390.367 53.4873 391.791 54.2607C393.233 55.0166 394.296 55.9307 394.982 57.0029C395.685 58.0752 396.036 59.376 396.036 60.9053C396.036 63.4717 394.973 65.5547 392.846 67.1543C390.719 68.7363 387.933 69.5273 384.487 69.5273C382.15 69.5273 380.067 69.1055 378.238 68.2617C376.41 67.418 374.987 66.2578 373.967 64.7812C372.947 63.3047 372.438 61.7139 372.438 60.0088H378.66C378.748 61.5205 379.32 62.6895 380.374 63.5156C381.429 64.3242 382.826 64.7285 384.567 64.7285C386.254 64.7285 387.537 64.4121 388.416 63.7793C389.295 63.1289 389.735 62.2852 389.735 61.248Z" fill="#669933"/>
</svg>
